<svg xmlns="http://www.w3.org/2000/svg" xmlns:xlink="http://www.w3.org/1999/xlink" width="500" zoomAndPan="magnify" viewBox="0 0 375 374.999991" height="500" preserveAspectRatio="xMidYMid meet" version="1.0"><defs><clipPath id="f65b5324cb"><path d="M 107.550781 5.140625 L 332 5.140625 L 332 346 L 107.550781 346 Z M 107.550781 5.140625 " clip-rule="nonzero"/></clipPath></defs><g clip-path="url(#f65b5324cb)"><path fill="#444444" d="M 108.027344 341.921875 C 110.015625 333.558594 113.652344 325.683594 117.6875 318.125 C 121.742188 310.539062 126.488281 303.40625 131.921875 296.738281 C 137.566406 289.804688 144.15625 283.9375 151.695312 279.128906 C 155.324219 276.828125 159.125 274.882812 163.214844 273.515625 C 167.488281 272.082031 171.890625 271.15625 176.226562 269.941406 C 180.136719 268.839844 184.066406 267.535156 187.5 265.3125 C 190.734375 263.21875 193.25 260.289062 195.921875 257.554688 C 198.636719 254.785156 201.578125 252.277344 205.015625 250.441406 C 208.589844 248.535156 212.476562 247.367188 216.3125 246.132812 C 228.347656 242.269531 239.796875 235.292969 246.085938 223.984375 C 254.113281 209.546875 254.007812 191.554688 251.703125 175.664062 C 250.417969 166.804688 248.59375 157.949219 245.84375 149.433594 C 243.261719 141.445312 240.8125 133.378906 239.226562 125.121094 C 237.976562 118.617188 237.351562 111.898438 238.695312 105.359375 C 239.941406 99.289062 243.175781 93.953125 247.6875 89.746094 C 253.472656 84.34375 260.945312 81.007812 268.386719 78.589844 C 276.53125 75.933594 285.109375 74.714844 293.597656 73.695312 C 300.09375 72.917969 306.402344 71.96875 312.722656 70.28125 C 316.9375 69.160156 320.816406 67.003906 323.214844 63.375 C 326.464844 58.464844 326.757812 52.464844 326.6875 46.753906 C 326.574219 37.582031 325.539062 28.460938 324.914062 19.316406 C 324.765625 17.132812 324.636719 15.148438 325.003906 12.988281 C 325.402344 10.640625 325.453125 8.320312 325.601562 5.945312 C 325.640625 5.257812 326.792969 5.152344 326.839844 5.878906 C 326.988281 8.25 327.15625 10.519531 327.796875 12.816406 C 328.433594 15.117188 328.566406 17.328125 328.789062 19.683594 C 329.21875 24.1875 329.746094 28.679688 330.1875 33.191406 C 330.996094 41.382812 331.894531 49.96875 330.234375 58.113281 C 329.242188 62.957031 327.007812 67.554688 323.160156 70.757812 C 319.03125 74.199219 313.929688 76.214844 308.734375 77.363281 C 293.148438 80.804688 276.359375 79.910156 261.597656 86.597656 C 255.242188 89.476562 249.222656 93.671875 245.707031 99.839844 C 242.855469 104.84375 242.242188 110.816406 242.621094 116.472656 C 243.09375 123.847656 245.230469 131.03125 246.691406 138.257812 C 247.632812 142.910156 248.503906 147.578125 249.417969 152.234375 C 250.261719 156.53125 251.394531 160.773438 252.296875 165.070312 C 255.800781 181.695312 257.859375 199.808594 253.078125 216.40625 C 251.226562 222.832031 248.261719 228.90625 244 234.082031 C 240.011719 238.925781 234.992188 242.875 229.578125 246 C 226.480469 247.824219 223.253906 249.382812 219.898438 250.679688 C 216.253906 252.070312 212.5 253.210938 209.007812 254.964844 C 202.269531 258.339844 198.375 264.894531 192.625 269.496094 C 185.84375 274.933594 176.945312 276.285156 168.808594 278.542969 C 160.398438 280.878906 152.964844 285.425781 146.398438 291.121094 C 140.089844 296.589844 134.679688 303.003906 129.867188 309.804688 C 124.902344 316.816406 120.519531 324.261719 117.375 332.265625 C 115.871094 336.097656 114.605469 340.003906 113.574219 343.984375 C 113.175781 345.53125 111.152344 346.242188 109.765625 345.722656 C 108.117188 345.113281 107.65625 343.484375 108.027344 341.921875 Z M 108.027344 341.921875 " fill-opacity="1" fill-rule="nonzero"/></g><path fill="#444444" d="M 252.441406 104 C 255.753906 98.566406 261.261719 94.816406 266.675781 91.707031 C 269.160156 90.28125 271.640625 88.882812 274.316406 87.84375 C 276.777344 86.917969 279.289062 86.15625 281.851562 85.5625 C 287.214844 84.269531 292.71875 83.574219 298.191406 82.910156 C 303.464844 82.269531 308.292969 81.566406 313.507812 80.042969 C 318.195312 78.671875 322.445312 76.5625 325.933594 73.070312 C 326.386719 72.617188 326.839844 72.167969 327.28125 71.707031 C 327.492188 71.492188 327.699219 71.269531 327.902344 71.042969 L 328.246094 70.644531 L 328.445312 70.402344 C 329.078125 69.558594 329.660156 68.683594 330.183594 67.769531 C 331.367188 65.734375 332.332031 63.605469 333.082031 61.371094 C 334.824219 56.328125 335.75 51.042969 336.257812 45.75 C 336.792969 40.300781 336.867188 34.847656 336.484375 29.382812 C 336.304688 26.839844 336.039062 24.296875 335.652344 21.773438 C 335.476562 20.621094 335.21875 19.472656 335.09375 18.3125 C 334.972656 17.214844 334.695312 16.085938 334.738281 14.984375 C 334.753906 14.089844 334.648438 13.203125 334.429688 12.332031 C 334.230469 11.503906 335.488281 11.269531 335.820312 11.976562 C 336.191406 12.832031 336.617188 13.660156 337.089844 14.460938 C 337.652344 15.375 337.910156 16.5625 338.222656 17.589844 C 338.929688 19.921875 339.179688 22.460938 339.457031 24.871094 C 340.0625 30.320312 340.25 35.785156 340.019531 41.265625 C 339.835938 46.957031 339.101562 52.574219 337.816406 58.125 C 336.671875 62.941406 335.082031 67.796875 332.4375 72.027344 C 331.023438 74.285156 329.457031 76.355469 327.425781 78.109375 C 325.425781 79.835938 323.234375 81.28125 320.859375 82.445312 C 315.859375 84.902344 310.488281 86.078125 305.007812 86.882812 C 299.625 87.675781 294.199219 88.03125 288.796875 88.628906 C 283.613281 89.199219 278.484375 89.90625 273.597656 91.78125 C 270.953125 92.796875 268.496094 94.199219 266.082031 95.6875 C 263.464844 97.300781 260.882812 99.078125 258.699219 101.25 C 256.433594 103.507812 254.527344 106.1875 253.394531 109.191406 C 252.882812 110.550781 252.617188 111.957031 252.601562 113.410156 C 252.582031 114.777344 252.863281 116.128906 252.863281 117.488281 C 252.835938 119.082031 252.636719 120.652344 252.269531 122.199219 C 252.246094 122.347656 252.164062 122.425781 252.011719 122.429688 C 251.863281 122.433594 251.773438 122.363281 251.746094 122.214844 C 251.382812 120.628906 250.792969 119.121094 250.414062 117.542969 C 250.101562 116.195312 249.914062 114.832031 249.855469 113.453125 C 249.707031 110.085938 250.6875 106.878906 252.441406 104 Z M 252.441406 104 " fill-opacity="1" fill-rule="nonzero"/><path fill="#444444" d="M 256.085938 236.257812 C 256.867188 234.574219 257.59375 232.855469 258.292969 231.136719 C 259.578125 227.953125 260.539062 224.671875 261.179688 221.300781 C 262.480469 214.628906 262.496094 207.875 261.929688 201.125 C 261.289062 193.496094 259.945312 185.949219 259.058594 178.347656 C 258.59375 174.394531 258.289062 170.421875 257.941406 166.457031 C 257.761719 164.425781 257.570312 162.390625 257.390625 160.355469 C 257.210938 158.320312 257.289062 156.25 257.085938 154.195312 C 256.644531 149.695312 256.082031 145.210938 255.597656 140.714844 C 255.324219 138.125 254.910156 135.550781 254.359375 133.003906 C 255.894531 138.972656 257.273438 144.972656 258.113281 151.078125 C 258.390625 153.089844 258.574219 155.121094 258.964844 157.113281 C 259.355469 159.105469 259.601562 161.113281 259.808594 163.148438 C 260.230469 167.230469 260.628906 171.3125 261.082031 175.386719 C 262.6875 189.867188 265.542969 204.648438 263.613281 219.238281 C 263.070312 223.1875 262.207031 227.058594 261.023438 230.863281 C 260.414062 232.84375 259.6875 234.777344 258.835938 236.664062 C 257.894531 238.777344 256.976562 240.914062 255.382812 242.625 C 254.730469 243.324219 253.527344 242.625 253.761719 241.71875 C 254.269531 239.777344 255.246094 238.070312 256.085938 236.257812 Z M 256.085938 236.257812 " fill-opacity="1" fill-rule="nonzero"/><path fill="#444444" d="M 254.359375 133.007812 C 253.929688 131.339844 253.492188 129.671875 253.046875 128.007812 C 253.5625 129.652344 254 131.320312 254.359375 133.007812 Z M 254.359375 133.007812 " fill-opacity="1" fill-rule="nonzero"/><path fill="#444444" d="M 252.925781 127.546875 C 252.964844 127.699219 253.003906 127.855469 253.046875 128.007812 C 253 127.859375 252.953125 127.703125 252.90625 127.554688 C 252.902344 127.546875 252.90625 127.542969 252.910156 127.539062 C 252.917969 127.539062 252.921875 127.542969 252.925781 127.546875 Z M 252.925781 127.546875 " fill-opacity="1" fill-rule="nonzero"/><path fill="#444444" d="M 116.769531 355.179688 C 117.152344 349.542969 119.457031 344.351562 121.988281 339.375 C 124.722656 334.011719 128.03125 328.972656 131.125 324.109375 C 137.425781 314.238281 143.980469 304.492188 152.882812 296.761719 C 155.09375 294.800781 157.449219 293.039062 159.953125 291.476562 C 162.179688 290.113281 164.605469 289.089844 167.050781 288.195312 C 172.089844 286.328125 177.320312 285.078125 182.238281 282.910156 C 184.46875 281.914062 186.644531 280.84375 188.535156 279.285156 C 190.425781 277.722656 192.054688 275.8125 193.65625 273.921875 C 195.257812 272.027344 196.863281 270.25 198.800781 268.753906 C 201.101562 266.96875 203.785156 265.6875 206.496094 264.648438 C 212.191406 262.464844 218.199219 261.179688 223.976562 259.214844 C 226.761719 258.273438 229.492188 257.195312 232.167969 255.972656 C 233.5 255.359375 234.890625 255.003906 236.269531 254.511719 C 237.578125 254.039062 238.84375 253.464844 240.066406 252.800781 C 241.347656 252.101562 242.589844 251.335938 243.789062 250.507812 C 244.1875 250.234375 244.652344 250.90625 244.269531 251.21875 C 242.085938 252.972656 239.753906 254.566406 237.609375 256.382812 C 236.53125 257.289062 235.433594 258.28125 234.1875 258.9375 C 232.96875 259.578125 231.738281 260.183594 230.492188 260.757812 C 227.710938 262.039062 224.867188 263.195312 221.980469 264.203125 C 219.164062 265.179688 216.265625 265.914062 213.40625 266.75 C 208.210938 268.265625 202.929688 270.0625 199.101562 274.070312 C 197.5 275.753906 196.085938 277.601562 194.507812 279.308594 C 192.71875 281.265625 190.734375 283 188.546875 284.503906 C 184.0625 287.550781 178.929688 289.226562 173.851562 291.011719 C 168.855469 292.769531 163.933594 294.804688 159.734375 297.980469 C 150.867188 304.683594 143.84375 314.039062 138.175781 323.574219 C 132.59375 332.945312 127.144531 342.582031 123.789062 353.011719 C 123.410156 354.203125 122.902344 355.335938 122.527344 356.523438 C 122.082031 357.921875 120.433594 358.707031 119.066406 358.363281 C 118.714844 358.277344 118.390625 358.136719 118.089844 357.9375 C 117.792969 357.738281 117.535156 357.492188 117.324219 357.199219 C 117.113281 356.90625 116.960938 356.585938 116.863281 356.238281 C 116.769531 355.890625 116.738281 355.539062 116.769531 355.179688 Z M 116.769531 355.179688 " fill-opacity="1" fill-rule="nonzero"/><path fill="#444444" d="M 132.757812 350.332031 C 135.957031 343.882812 139.445312 337.503906 143.550781 331.578125 C 145.5625 328.675781 147.722656 325.894531 149.855469 323.078125 C 151.167969 321.34375 152.417969 319.59375 153.828125 317.9375 C 154.96875 316.613281 156.128906 315.304688 157.3125 314.011719 C 162.078125 308.789062 167.28125 304.042969 172.921875 299.78125 C 175.988281 297.476562 179.183594 295.375 182.511719 293.472656 C 184.300781 292.457031 186.117188 291.496094 187.957031 290.589844 C 188.785156 290.191406 189.621094 289.792969 190.441406 289.371094 C 190.839844 289.171875 191.226562 288.972656 191.621094 288.757812 L 191.734375 288.695312 C 192.050781 288.523438 192.371094 288.347656 192.6875 288.171875 C 196.34375 286.128906 199.917969 283.941406 203.695312 282.121094 C 205.878906 281.0625 208.125 280.070312 210.457031 279.382812 C 212.457031 278.820312 214.484375 278.390625 216.539062 278.089844 C 218.570312 277.765625 220.609375 277.492188 222.636719 277.164062 C 223.644531 276.992188 224.652344 276.808594 225.652344 276.585938 C 226.121094 276.480469 226.589844 276.367188 227.054688 276.246094 L 227.742188 276.0625 L 228.015625 275.972656 C 229.714844 275.367188 231.363281 274.648438 232.960938 273.8125 L 233.003906 273.789062 L 233.496094 273.5 C 233.832031 273.300781 234.167969 273.097656 234.496094 272.886719 C 235.257812 272.40625 236.003906 271.902344 236.734375 271.382812 C 237.398438 270.90625 238.050781 270.417969 238.699219 269.917969 C 239.023438 269.664062 239.347656 269.402344 239.671875 269.140625 C 239.867188 268.976562 240.066406 268.8125 240.265625 268.644531 L 240.863281 268.140625 L 241.335938 267.714844 C 241.652344 267.429688 241.964844 267.140625 242.273438 266.847656 C 242.980469 266.1875 243.671875 265.511719 244.351562 264.824219 C 245.648438 263.511719 246.898438 262.15625 248.105469 260.757812 C 248.714844 260.050781 249.324219 259.339844 249.910156 258.609375 C 250.304688 258.109375 250.703125 257.605469 251.113281 257.121094 C 251.253906 256.957031 251.398438 256.800781 251.539062 256.640625 C 251.570312 256.605469 251.757812 256.382812 251.871094 256.253906 C 251.945312 256.152344 252.066406 256.003906 252.089844 255.96875 L 252.46875 255.445312 C 252.75 255.050781 253.03125 254.667969 253.308594 254.273438 C 253.828125 253.539062 254.335938 252.796875 254.832031 252.046875 C 255.792969 250.589844 256.710938 249.109375 257.589844 247.605469 C 257.8125 247.222656 258.03125 246.835938 258.25 246.445312 L 258.535156 245.933594 C 258.371094 246.226562 258.082031 246.78125 258.8125 245.421875 C 258.507812 245.988281 259.035156 245 259.097656 244.878906 C 259.316406 244.464844 259.527344 244.042969 259.738281 243.621094 C 260.292969 242.507812 260.816406 241.375 261.347656 240.246094 C 263.875 234.882812 266.339844 229.460938 268.5 223.933594 C 269.589844 221.15625 270.40625 218.257812 271.171875 215.371094 C 271.835938 212.882812 272.324219 210.355469 272.332031 207.773438 C 272.332031 207.246094 272.300781 206.722656 272.3125 206.199219 C 272.3125 205.75 272.410156 205.152344 272.296875 204.71875 C 271.902344 203.222656 274.234375 202.605469 274.625 204.109375 C 274.921875 205.238281 275.363281 206.167969 275.457031 207.367188 C 275.542969 208.589844 275.539062 209.808594 275.445312 211.027344 C 275.238281 213.996094 274.789062 216.925781 274.09375 219.820312 C 272.578125 226.078125 270.667969 232.21875 268.363281 238.230469 C 266.199219 243.921875 263.882812 249.472656 260.773438 254.726562 C 256.945312 261.1875 252.449219 267.261719 247.007812 272.457031 C 241.28125 277.925781 234.800781 282.386719 227.035156 284.304688 C 223.160156 285.265625 219.171875 285.644531 215.289062 286.550781 C 211.34375 287.464844 207.777344 289.109375 204.246094 291.050781 C 200.425781 293.15625 196.699219 295.441406 192.808594 297.40625 C 191.164062 298.238281 189.507812 299.035156 187.890625 299.917969 C 187.136719 300.328125 186.398438 300.753906 185.664062 301.183594 C 185.398438 301.339844 184.554688 301.835938 184.597656 301.808594 L 184.582031 301.808594 C 184.183594 302.046875 183.789062 302.285156 183.390625 302.53125 C 177.460938 306.210938 171.964844 310.453125 166.90625 315.257812 C 164.378906 317.640625 161.957031 320.125 159.628906 322.699219 C 157.296875 325.269531 154.949219 327.71875 152.769531 330.390625 C 150.246094 333.480469 147.789062 336.632812 145.324219 339.773438 C 144.886719 340.332031 144.402344 340.925781 143.761719 341.683594 C 143.164062 342.394531 142.566406 343.109375 141.972656 343.824219 C 140.84375 345.183594 139.722656 346.546875 138.605469 347.914062 C 137.484375 349.304688 136.289062 350.617188 135.113281 351.957031 C 134.015625 353.21875 132.035156 351.789062 132.757812 350.332031 Z M 132.757812 350.332031 " fill-opacity="1" fill-rule="nonzero"/><path fill="#444444" d="M 259.464844 127.828125 C 259.847656 121.078125 261.296875 114.253906 265.796875 108.976562 C 274.015625 99.34375 287.535156 97.984375 299.238281 96.066406 C 306.085938 94.9375 312.917969 93.632812 319.355469 90.996094 C 325.90625 88.3125 331.667969 84.085938 335.980469 78.449219 C 345.277344 66.3125 347.886719 51.09375 349.289062 36.261719 C 349.457031 34.464844 349.804688 32.6875 350.0625 30.898438 C 350.246094 29.597656 352.207031 29.507812 352.398438 30.855469 C 352.941406 34.570312 353.128906 38.304688 352.964844 42.054688 C 352.789062 45.980469 352.363281 49.875 351.679688 53.742188 C 350.320312 61.417969 347.871094 68.734375 343.933594 75.472656 C 340.109375 82.003906 334.84375 87.742188 328.390625 91.746094 C 322.269531 95.542969 315.3125 97.71875 308.308594 99.191406 C 301.707031 100.582031 294.988281 101.273438 288.375 102.59375 C 282.996094 103.667969 277.332031 105.203125 272.828125 108.46875 C 270.5625 110.109375 268.929688 111.792969 267.5 114.03125 C 265.914062 116.519531 264.949219 119.226562 264.347656 122.257812 C 263.597656 126.042969 263.511719 129.960938 263.542969 133.804688 C 263.578125 137.894531 263.914062 141.960938 264.546875 146 C 265.175781 150.015625 266 154 266.882812 157.960938 C 267.765625 161.925781 268.835938 165.878906 269.5 169.878906 C 270.160156 173.851562 270.890625 177.804688 271.539062 181.773438 C 271.84375 183.640625 272.109375 185.519531 272.316406 187.402344 C 272.539062 189.421875 272.515625 191.375 272.558594 193.40625 C 272.59375 195.289062 272.542969 197.167969 272.414062 199.046875 C 272.347656 199.960938 270.9375 200.015625 270.972656 199.078125 C 271.101562 195.144531 270.6875 191.332031 270.226562 187.433594 C 269.761719 183.472656 269.113281 179.488281 268.09375 175.632812 C 267.050781 171.710938 265.871094 167.835938 264.878906 163.894531 C 263.882812 159.953125 262.890625 155.980469 262.035156 151.992188 C 260.339844 144.09375 259.007812 135.917969 259.464844 127.828125 Z M 259.464844 127.828125 " fill-opacity="1" fill-rule="nonzero"/><path fill="#444444" d="M 285.921875 123.707031 L 285.9375 123.695312 C 285.65625 124.171875 285.429688 124.183594 285.578125 123.996094 C 285.703125 123.910156 285.816406 123.816406 285.921875 123.707031 Z M 285.921875 123.707031 " fill-opacity="1" fill-rule="nonzero"/><path fill="#444444" d="M 148.628906 357.019531 C 150.171875 354.398438 151.695312 351.480469 153.195312 349.074219 C 154.867188 346.398438 156.699219 343.847656 158.558594 341.296875 C 162.085938 336.480469 165.847656 331.855469 169.84375 327.421875 C 177.859375 318.484375 187.148438 310.800781 197.886719 305.355469 C 203.273438 302.636719 208.902344 300.570312 214.769531 299.148438 C 217.792969 298.410156 220.867188 297.945312 223.863281 297.082031 C 226.707031 296.253906 229.457031 295.195312 232.121094 293.902344 C 237.433594 291.332031 242.25 287.902344 246.597656 283.925781 C 248.707031 282 250.570312 279.722656 252.402344 277.542969 C 254.308594 275.289062 256.128906 272.953125 257.816406 270.53125 C 261.253906 265.605469 264.175781 260.449219 267.109375 255.214844 C 268.828125 252.144531 270.722656 249.167969 272.300781 246.015625 C 273.84375 242.910156 275.144531 239.707031 276.199219 236.402344 C 280.496094 223.09375 280.371094 209.289062 279 195.519531 C 277.511719 180.621094 273.4375 166.101562 272.097656 151.195312 C 271.5 144.546875 271.105469 137.585938 272.332031 130.972656 C 273.195312 126.34375 275.019531 121.707031 278.488281 118.402344 C 282.035156 115.027344 286.585938 113.160156 291.367188 112.335938 C 294.492188 111.800781 297.671875 111.808594 300.785156 111.214844 C 304.285156 110.550781 306.90625 109.691406 310.234375 108.191406 C 316.207031 105.503906 321.460938 101.875 327.011719 98.023438 C 332.1875 94.433594 337.894531 91.59375 342.871094 87.722656 C 345.320312 85.847656 347.542969 83.734375 349.535156 81.378906 C 350.230469 80.542969 351.667969 81.222656 351.253906 82.3125 C 349.011719 88.210938 344.058594 92.503906 339.292969 96.425781 C 334 100.78125 328.355469 104.730469 322.886719 108.855469 C 317.273438 113.089844 311.304688 116.875 304.484375 118.832031 C 301.492188 119.691406 298.480469 119.898438 295.417969 120.335938 C 294.210938 120.503906 293.011719 120.738281 291.828125 121.035156 C 291.640625 121.082031 289.773438 121.691406 289.023438 121.9375 C 289.179688 121.855469 289.257812 121.796875 288.824219 122.003906 L 288.707031 122.042969 C 288.714844 122.046875 288.71875 122.046875 288.726562 122.042969 C 288.527344 122.140625 288.328125 122.234375 288.128906 122.332031 C 287.699219 122.550781 287.28125 122.785156 286.871094 123.042969 C 286.550781 123.238281 286.242188 123.460938 285.929688 123.679688 L 285.96875 123.613281 C 285.953125 123.640625 285.9375 123.667969 285.914062 123.691406 L 285.824219 123.753906 C 285.730469 123.816406 285.644531 123.894531 285.570312 123.980469 C 285.515625 124.023438 285.460938 124.0625 285.421875 124.101562 C 284.808594 124.710938 284.238281 125.355469 283.710938 126.039062 C 283.652344 126.136719 283.589844 126.238281 283.53125 126.332031 C 283.238281 126.835938 282.96875 127.355469 282.726562 127.886719 C 282.550781 128.285156 282.386719 128.683594 282.234375 129.078125 C 282.167969 129.253906 281.886719 130.144531 281.914062 130.003906 C 281.632812 131.03125 281.40625 132.066406 281.234375 133.113281 C 280.867188 135.542969 280.691406 137.988281 280.703125 140.445312 C 280.597656 156.398438 284.558594 172.105469 286.050781 187.929688 C 287.355469 201.765625 287.015625 215.914062 284.152344 229.546875 C 282.734375 236.390625 280.503906 242.960938 277.46875 249.253906 C 274.527344 255.296875 270.613281 260.535156 266.730469 266.011719 C 259.859375 275.707031 252.074219 284.960938 242.414062 291.992188 C 237.589844 295.53125 232.347656 298.273438 226.6875 300.210938 C 220.878906 302.183594 214.769531 302.824219 209.03125 305.089844 C 198.183594 309.378906 188.925781 316.808594 180.996094 325.257812 C 176.871094 329.644531 172.964844 334.222656 169.277344 338.988281 C 165.675781 343.664062 162.386719 348.601562 158.65625 353.175781 C 156.816406 355.433594 154.882812 357.597656 153.03125 359.859375 C 151.183594 362.121094 147.074219 359.660156 148.628906 357.019531 Z M 148.628906 357.019531 " fill-opacity="1" fill-rule="nonzero"/><path fill="#444444" d="M 288.828125 122.011719 L 289.027344 121.945312 C 288.9375 122 288.835938 122.039062 288.734375 122.058594 L 288.742188 122.058594 Z M 288.828125 122.011719 " fill-opacity="1" fill-rule="nonzero"/><path fill="#444444" d="M 187.875 342.21875 C 188.53125 339.875 189.445312 337.636719 190.621094 335.507812 C 193.101562 331.027344 196.539062 327.335938 200.613281 324.246094 C 208.164062 318.527344 217.230469 315.273438 225.839844 311.566406 C 228.074219 310.605469 230.296875 309.613281 232.476562 308.539062 C 233.558594 308.007812 234.632812 307.453125 235.691406 306.875 C 236.222656 306.585938 236.746094 306.292969 237.265625 305.992188 C 237.523438 305.839844 237.785156 305.6875 238.039062 305.535156 C 238.085938 305.507812 238.5625 305.21875 238.53125 305.242188 C 243.613281 302.0625 248.386719 298.167969 252.902344 294.242188 C 254.351562 292.984375 255.109375 292.296875 256.277344 291.191406 C 257.445312 290.089844 258.5625 288.988281 259.699219 287.875 C 260.832031 286.765625 261.914062 285.613281 263.039062 284.5 C 264.070312 283.46875 265.351562 282.511719 266.492188 281.246094 C 270.734375 276.542969 274.417969 271.4375 277.546875 265.929688 C 283.722656 255.085938 288.097656 243.027344 290.503906 230.785156 C 292.761719 219.3125 292.808594 207.757812 291.050781 196.226562 C 289.699219 187.355469 288.15625 178.511719 287.523438 169.550781 C 286.859375 160.214844 286.871094 150.214844 290.5 141.417969 C 292.078125 137.589844 294.535156 134.203125 297.859375 131.703125 C 299.695312 130.328125 301.730469 129.46875 303.851562 128.625 C 306.632812 127.519531 309.371094 126.347656 312.066406 125.070312 C 317.601562 122.445312 322.566406 119.082031 326.90625 114.742188 C 329.441406 112.207031 331.726562 109.441406 334.273438 106.917969 C 336.949219 104.292969 339.757812 101.816406 342.699219 99.488281 C 345.460938 97.265625 348.546875 95.445312 351.457031 93.421875 C 352.589844 92.628906 354.121094 94.375 353.046875 95.320312 C 350.40625 97.65625 347.964844 100.207031 345.339844 102.554688 C 342.296875 105.265625 339.335938 108.097656 336.542969 111.0625 C 334.09375 113.660156 331.875 116.460938 329.371094 119.007812 C 327.242188 121.175781 324.933594 123.136719 322.449219 124.882812 C 317.214844 128.558594 311.484375 131.121094 305.566406 133.480469 C 304.496094 133.875 303.457031 134.335938 302.449219 134.867188 C 302.035156 135.101562 301.628906 135.351562 301.234375 135.617188 L 300.835938 135.882812 C 300.773438 135.925781 300.347656 136.261719 300.308594 136.28125 C 299.644531 136.835938 299.023438 137.4375 298.445312 138.085938 C 298.136719 138.433594 297.847656 138.792969 297.558594 139.160156 L 297.464844 139.285156 C 297.308594 139.503906 297.160156 139.722656 297.015625 139.949219 C 294.75 143.453125 293.789062 146.773438 293.070312 150.925781 C 292.292969 155.429688 292.164062 159.722656 292.292969 164.371094 C 292.550781 173.613281 293.953125 182.773438 295.355469 191.886719 C 296.996094 202.542969 297.882812 213.210938 296.820312 223.984375 C 296.203125 230.222656 295.144531 236.558594 293.335938 242.566406 C 291.492188 248.585938 289.179688 254.421875 286.394531 260.066406 C 283.679688 265.605469 280.613281 270.945312 277.191406 276.078125 C 275.347656 278.859375 273.417969 281.589844 271.472656 284.289062 C 270.675781 285.382812 270.109375 286.253906 269.367188 287.4375 C 268.382812 289.011719 267.179688 290.417969 265.988281 291.832031 C 261.714844 296.886719 256.851562 301.535156 251.773438 305.78125 C 247.4375 309.414062 242.800781 312.699219 237.828125 315.40625 C 229.664062 319.851562 220.785156 322.796875 212.589844 327.171875 C 210.636719 328.199219 208.753906 329.34375 206.941406 330.601562 C 206.132812 331.167969 205.339844 331.765625 204.570312 332.386719 C 204.15625 332.726562 203.75 333.078125 203.347656 333.433594 L 203.273438 333.492188 L 203.195312 333.574219 C 202.941406 333.824219 202.683594 334.070312 202.433594 334.328125 C 200.949219 335.859375 199.632812 337.519531 198.476562 339.308594 C 198.347656 339.507812 198.222656 339.707031 198.101562 339.90625 C 198.027344 340.035156 197.945312 340.164062 197.855469 340.285156 C 197.632812 340.707031 197.332031 341.324219 197.292969 341.410156 C 196.742188 342.519531 196.265625 343.664062 195.859375 344.835938 C 195.007812 347.269531 194.167969 349.722656 193.398438 352.183594 C 192.453125 355.191406 187.402344 354.765625 187.121094 351.566406 C 186.839844 348.324219 186.992188 345.351562 187.875 342.21875 Z M 187.875 342.21875 " fill-opacity="1" fill-rule="nonzero"/><path fill="#444444" d="M 205.800781 347.769531 C 207.269531 345.734375 208.90625 343.816406 210.289062 341.722656 C 211.621094 339.707031 213.359375 337.972656 215.058594 336.261719 C 218.335938 332.988281 221.820312 329.957031 225.515625 327.160156 C 233.210938 321.296875 241.726562 316.847656 250.46875 312.777344 C 258.886719 308.859375 266.8125 303.792969 273.664062 297.507812 C 280.398438 291.324219 286.003906 284.078125 290.726562 276.265625 C 296.269531 267.09375 300.042969 257.230469 301.847656 246.648438 C 303.675781 235.902344 303.730469 224.976562 303.417969 214.113281 C 303.109375 203.335938 302.476562 192.566406 302.847656 181.785156 C 303.011719 176.230469 303.492188 170.707031 304.292969 165.210938 C 304.9375 160.945312 306.011719 156.960938 307.910156 153.074219 C 311.867188 144.976562 318.070312 137.996094 324.511719 131.789062 C 331.140625 125.398438 338.363281 119.648438 345.765625 114.195312 C 347.304688 113.058594 348.859375 111.945312 350.414062 110.816406 C 351.179688 110.265625 352.351562 110.785156 352.757812 111.527344 C 353.257812 112.4375 352.804688 113.328125 352.046875 113.871094 C 344.984375 118.960938 338.097656 124.304688 331.621094 130.117188 C 324.886719 136.160156 318.363281 142.761719 313.566406 150.488281 C 311.4375 153.914062 309.648438 157.578125 308.710938 161.515625 C 307.511719 166.570312 307.085938 171.914062 306.777344 177.085938 C 306.132812 187.835938 306.546875 198.632812 306.765625 209.386719 C 307.199219 230.929688 306.785156 253.109375 296.34375 272.5625 C 291.957031 280.726562 286.546875 288.488281 280.160156 295.21875 C 273.90625 301.777344 266.800781 307.226562 258.847656 311.566406 C 254.574219 313.914062 250.097656 315.800781 245.710938 317.921875 C 241.386719 320 237.183594 322.300781 233.101562 324.816406 C 229.113281 327.28125 225.246094 329.980469 221.699219 333.0625 C 219.894531 334.621094 218.160156 336.269531 216.496094 337.980469 C 214.832031 339.6875 213.332031 341.488281 211.625 343.121094 C 209.859375 344.8125 208.46875 346.878906 207.074219 348.882812 C 206.457031 349.75 205.15625 348.648438 205.800781 347.769531 Z M 205.800781 347.769531 " fill-opacity="1" fill-rule="nonzero"/><path fill="#444444" d="M 221.683594 356.371094 C 224.898438 338.890625 241.171875 327.65625 255.417969 319.199219 C 262.53125 314.976562 270.011719 311.175781 276.59375 306.136719 C 283.492188 300.855469 289.152344 294.292969 293.597656 286.835938 C 294.800781 284.816406 295.582031 283.421875 296.660156 281.375 C 297.652344 279.472656 298.578125 277.539062 299.414062 275.566406 C 301.128906 271.546875 302.554688 267.433594 303.699219 263.21875 C 305.984375 254.5625 307.589844 245.78125 308.503906 236.875 C 309.496094 227.417969 309.734375 217.902344 310.746094 208.449219 C 312.003906 196.730469 314.324219 185.171875 316.871094 173.675781 C 318.101562 168.140625 319.113281 162.464844 320.765625 157.042969 C 322.121094 152.652344 324.109375 148.566406 326.722656 144.789062 C 331.820312 137.355469 338.851562 131.921875 346.523438 127.367188 C 347.523438 126.800781 348.558594 126.3125 349.632812 125.910156 C 350.707031 125.480469 351.695312 124.851562 352.707031 124.292969 C 353.445312 123.886719 354.011719 124.992188 353.316406 125.441406 C 352.308594 126.09375 351.289062 126.707031 350.398438 127.515625 C 349.574219 128.277344 348.707031 128.988281 347.796875 129.644531 C 345.921875 130.988281 344.109375 132.441406 342.3125 133.886719 C 338.988281 136.566406 335.785156 139.480469 333 142.722656 C 330.210938 145.953125 327.953125 149.519531 326.222656 153.421875 C 324.113281 158.210938 323.078125 163.351562 321.851562 168.414062 C 319.117188 179.671875 316.410156 190.984375 314.820312 202.46875 C 313.445312 212.363281 313.171875 222.332031 312.292969 232.28125 C 310.730469 249.933594 308.203125 267.769531 301.3125 284.238281 C 297.847656 292.515625 292.640625 300.105469 286.386719 306.523438 C 280.363281 312.707031 273.0625 317.167969 265.71875 321.59375 C 262.167969 323.734375 258.613281 325.863281 255.121094 328.097656 C 253.347656 329.230469 251.59375 330.390625 249.871094 331.597656 C 249.011719 332.203125 248.160156 332.8125 247.320312 333.4375 L 246.816406 333.816406 L 246.386719 334.144531 C 246.046875 334.40625 245.707031 334.671875 245.371094 334.9375 C 242.195312 337.496094 239.171875 340.300781 236.546875 343.429688 C 236.222656 343.8125 235.902344 344.203125 235.59375 344.601562 C 235.578125 344.621094 235.308594 344.980469 235.242188 345.0625 C 235.175781 345.148438 235.140625 345.203125 235.132812 345.210938 C 234.546875 346.023438 233.988281 346.851562 233.460938 347.703125 C 232.40625 349.417969 231.460938 351.183594 230.613281 353.007812 C 230.402344 353.46875 230.203125 353.933594 230 354.398438 L 229.988281 354.425781 C 229.988281 354.425781 229.988281 354.4375 229.988281 354.441406 C 229.910156 354.6875 229.804688 354.925781 229.71875 355.167969 C 229.359375 356.160156 229.023438 357.136719 228.722656 358.148438 C 228.191406 359.964844 226.242188 361.363281 224.316406 360.78125 C 222.332031 360.183594 221.316406 358.375 221.683594 356.371094 Z M 221.683594 356.371094 " fill-opacity="1" fill-rule="nonzero"/><path fill="#444444" d="M 242.59375 352.585938 C 243.472656 350.921875 244.648438 349.457031 245.554688 347.820312 C 246.386719 346.269531 247.316406 344.78125 248.347656 343.351562 C 250.699219 340.164062 253.511719 337.574219 256.613281 335.128906 C 262.621094 330.398438 269.183594 326.441406 275.21875 321.75 C 278.414062 319.261719 281.449219 316.542969 284.496094 313.878906 C 287.59375 311.167969 290.628906 308.390625 293.527344 305.472656 C 299.222656 299.738281 304.316406 293.449219 308.207031 286.347656 C 312.671875 278.21875 315.5 269.558594 316.691406 260.363281 C 317.902344 250.777344 317.425781 241.152344 317.683594 231.523438 C 317.949219 221.621094 320.214844 211.878906 322.410156 202.261719 C 323.542969 197.277344 324.761719 192.316406 325.691406 187.289062 C 326.546875 182.640625 327.035156 177.953125 327.675781 173.277344 C 328.328125 168.46875 329.324219 163.785156 331.171875 159.285156 C 332.492188 156.070312 334.351562 153.363281 336.464844 150.648438 C 336.660156 150.398438 336.847656 150.148438 337.046875 149.90625 C 337.191406 149.726562 337.21875 149.695312 337.195312 149.726562 L 337.226562 149.6875 C 337.425781 149.4375 337.625 149.203125 337.824219 148.96875 C 338.367188 148.367188 338.914062 147.773438 339.46875 147.179688 C 340.582031 146.019531 341.6875 144.84375 342.800781 143.683594 C 344.683594 141.730469 346.617188 139.738281 348.808594 138.128906 C 349.3125 137.75 349.84375 137.410156 350.398438 137.109375 C 350.53125 137.042969 350.660156 136.976562 350.796875 136.910156 C 352.078125 136.402344 351.285156 136.769531 350.953125 136.863281 C 351.21875 136.789062 351.480469 136.699219 351.75 136.636719 C 353.089844 136.316406 354.457031 137.503906 354.648438 138.78125 C 354.832031 140 354.148438 140.980469 353.132812 141.457031 C 353.140625 141.445312 353.148438 141.429688 353.152344 141.414062 C 353.136719 141.441406 353.117188 141.460938 353.089844 141.480469 C 352.902344 141.5625 352.707031 141.628906 352.503906 141.679688 C 352.730469 141.621094 352.878906 141.582031 352.964844 141.558594 L 352.957031 141.558594 L 352.847656 141.605469 C 352.726562 141.660156 352.722656 141.683594 352.773438 141.675781 C 352.394531 141.972656 352.03125 142.285156 351.6875 142.621094 C 350.824219 143.445312 350.019531 144.332031 349.238281 145.230469 C 349.007812 145.496094 348.78125 145.761719 348.558594 146.027344 L 348.480469 146.113281 C 348.816406 145.71875 348.710938 145.839844 348.171875 146.480469 C 347.753906 146.984375 347.335938 147.488281 346.929688 147.996094 C 346.714844 148.261719 346.5 148.527344 346.289062 148.789062 L 345.894531 149.300781 C 345.703125 149.546875 345.507812 149.789062 345.3125 150.03125 C 345.53125 149.777344 345.570312 149.742188 345.433594 149.921875 C 344.535156 151.1875 343.675781 152.476562 342.765625 153.734375 C 341.109375 156.03125 339.546875 158.300781 338.320312 160.867188 C 336.417969 164.839844 335.542969 169.222656 334.910156 173.558594 C 334.253906 178.105469 333.851562 182.683594 333.066406 187.214844 C 332.238281 191.972656 331.160156 196.683594 330.050781 201.378906 C 327.796875 210.902344 325.320312 220.289062 324.273438 230.023438 C 323.757812 234.824219 323.507812 239.652344 323.035156 244.457031 C 322.589844 249.027344 322.082031 253.582031 321.367188 258.117188 C 319.894531 267.429688 317.59375 276.609375 313.492188 285.132812 C 306.40625 299.898438 294.378906 311.292969 281.964844 321.621094 C 276.203125 326.421875 269.960938 330.425781 263.648438 334.460938 C 260.460938 336.496094 257.402344 338.675781 254.402344 340.972656 C 251.519531 343.183594 248.5 345.386719 246.121094 348.160156 C 244.960938 349.503906 244.226562 351.359375 243.570312 352.992188 C 243.316406 353.632812 242.28125 353.179688 242.59375 352.585938 Z M 242.59375 352.585938 " fill-opacity="1" fill-rule="nonzero"/><path fill="#444444" d="M 352.957031 141.578125 L 352.988281 141.566406 L 352.964844 141.566406 C 353.011719 141.535156 353.054688 141.507812 353.089844 141.480469 L 353.132812 141.460938 C 353.046875 141.585938 352.925781 141.660156 352.773438 141.6875 L 352.785156 141.6875 C 352.808594 141.664062 352.882812 141.621094 352.957031 141.578125 Z M 352.957031 141.578125 " fill-opacity="1" fill-rule="nonzero"/><path fill="#444444" d="M 254.152344 347.011719 C 257.054688 343.835938 260.507812 341.195312 263.777344 338.394531 C 267.050781 335.59375 270.332031 332.832031 273.625 330.0625 C 280.257812 324.5 286.988281 319.121094 294.066406 314.140625 C 299.75 310.140625 304.714844 305.554688 308.863281 300.136719 C 312.722656 295.089844 315.835938 289.617188 318.210938 283.726562 C 323.175781 271.433594 325.324219 258.203125 327.597656 245.214844 C 328.761719 238.578125 329.890625 231.960938 330.777344 225.28125 C 331.683594 218.382812 332.496094 211.472656 333.613281 204.609375 C 334.730469 197.742188 336.117188 190.835938 338.378906 184.238281 C 340.582031 177.773438 343.460938 171.210938 347.765625 165.855469 C 348.8125 164.582031 349.929688 163.375 351.117188 162.238281 C 352.28125 161.101562 354.375 162.703125 353.378906 164.070312 C 351.40625 166.808594 349.585938 169.648438 347.917969 172.589844 C 346.246094 175.515625 344.8125 178.554688 343.621094 181.703125 C 341.183594 188.109375 339.503906 194.792969 338.222656 201.515625 C 335.664062 214.964844 334.527344 228.632812 332.125 242.105469 C 329.773438 255.285156 327.753906 268.652344 323.382812 281.351562 C 321.269531 287.5 318.65625 293.46875 315.238281 299.015625 C 311.625 304.839844 307.234375 310.003906 302.066406 314.507812 C 299.132812 317.089844 295.933594 319.332031 292.871094 321.742188 C 289.492188 324.394531 286.222656 327.15625 282.910156 329.871094 C 275.984375 335.550781 269.238281 341.519531 261.929688 346.710938 C 260.253906 347.9375 258.492188 349.019531 256.636719 349.957031 C 255.765625 350.382812 254.769531 350.355469 254.113281 349.558594 C 253.964844 349.382812 253.847656 349.179688 253.769531 348.960938 C 253.691406 348.742188 253.65625 348.511719 253.660156 348.277344 C 253.660156 348.046875 253.707031 347.820312 253.789062 347.601562 C 253.875 347.382812 253.996094 347.1875 254.152344 347.011719 Z M 254.152344 347.011719 " fill-opacity="1" fill-rule="nonzero"/><path fill="#444444" d="M 274.222656 347.117188 C 275.90625 346.007812 277.472656 344.710938 279.023438 343.421875 C 280.945312 341.832031 282.839844 340.164062 284.605469 338.394531 C 288.136719 334.855469 291.632812 331.324219 295.371094 328 C 299.789062 324.070312 304.128906 320.054688 308.253906 315.808594 C 308.394531 315.660156 308.964844 315.0625 308.535156 315.515625 C 308.773438 315.265625 309.011719 315.015625 309.246094 314.765625 C 309.761719 314.21875 310.269531 313.671875 310.773438 313.117188 C 311.75 312.058594 312.703125 310.984375 313.644531 309.886719 C 315.566406 307.652344 317.441406 305.367188 319.226562 303.015625 C 321.027344 300.683594 322.703125 298.261719 324.25 295.75 C 324.378906 295.535156 324.507812 295.320312 324.636719 295.105469 C 324.667969 295.042969 324.929688 294.578125 325.007812 294.4375 C 325.347656 293.8125 325.683594 293.175781 326 292.539062 C 326.605469 291.316406 327.175781 290.078125 327.707031 288.816406 C 328.777344 286.257812 329.703125 283.652344 330.488281 280.992188 C 330.507812 280.925781 330.523438 280.878906 330.53125 280.839844 C 330.542969 280.804688 330.558594 280.75 330.578125 280.671875 C 330.664062 280.355469 330.75 280.042969 330.835938 279.730469 C 331.03125 278.992188 331.230469 278.257812 331.421875 277.519531 C 331.761719 276.195312 332.078125 274.871094 332.371094 273.546875 C 334.78125 262.648438 335.761719 251.5 337.941406 240.558594 C 339.085938 234.820312 340.722656 229.238281 342.464844 223.675781 C 344.285156 217.871094 345.457031 211.929688 346.503906 205.949219 C 346.777344 204.40625 346.996094 202.988281 347.523438 201.511719 C 347.878906 200.519531 349.167969 200.390625 349.570312 201.433594 C 350.691406 204.363281 350.578125 207.898438 350.253906 210.992188 C 349.945312 213.988281 349.363281 216.964844 348.722656 219.90625 C 347.4375 225.804688 345.90625 231.664062 344.75 237.582031 C 342.585938 248.632812 342.015625 259.910156 340.265625 271.023438 C 339.347656 276.847656 338.0625 282.582031 336.09375 288.144531 C 334.035156 293.878906 331.253906 299.234375 327.75 304.21875 C 320.847656 314.128906 312.09375 322.582031 302.984375 330.453125 C 300.949219 332.210938 298.867188 333.914062 296.851562 335.695312 C 294.957031 337.371094 293.125 339.117188 291.148438 340.695312 C 287.257812 343.804688 283.289062 347.277344 278.609375 349.128906 C 277.625 349.523438 276.605469 349.777344 275.550781 349.886719 C 274.175781 350.023438 272.773438 348.070312 274.222656 347.117188 Z M 274.222656 347.117188 " fill-opacity="1" fill-rule="nonzero"/><path fill="#444444" d="M 298.921875 342.589844 L 299.363281 342.242188 C 299.367188 342.234375 299.371094 342.222656 299.375 342.214844 C 299.535156 341.839844 300.402344 341.179688 300.636719 341.023438 C 301.28125 340.578125 301.976562 340.191406 302.632812 339.757812 C 303.941406 338.890625 305.214844 337.976562 306.449219 337.003906 C 306.753906 336.765625 307.054688 336.527344 307.355469 336.285156 L 307.714844 335.988281 C 307.820312 335.734375 308.382812 335.417969 308.601562 335.230469 C 308.964844 334.914062 309.328125 334.605469 309.699219 334.296875 C 309.804688 334.207031 310.097656 333.871094 310.246094 333.839844 L 310.707031 333.445312 C 311.042969 333.148438 311.382812 332.847656 311.714844 332.550781 C 312.394531 331.941406 313.0625 331.320312 313.722656 330.691406 C 319.175781 325.480469 324.027344 319.613281 328.449219 313.511719 C 328.71875 313.136719 328.988281 312.761719 329.257812 312.382812 C 329.421875 312.152344 329.582031 311.925781 329.742188 311.699219 L 329.78125 311.644531 C 330.375 310.785156 330.957031 309.925781 331.527344 309.0625 C 332.644531 307.371094 333.722656 305.664062 334.769531 303.929688 C 336.832031 300.511719 338.761719 297.019531 340.554688 293.449219 C 344.015625 286.5625 347.0625 279.703125 349.21875 272.558594 C 350.367188 268.828125 351.277344 265.039062 351.945312 261.191406 C 352.238281 259.425781 352.367188 257.640625 352.625 255.871094 C 352.875 254.238281 353.023438 252.59375 353.066406 250.941406 C 353.085938 250.046875 354.523438 249.675781 354.714844 250.664062 C 355.332031 253.828125 355.660156 256.925781 355.523438 260.148438 C 355.371094 263.746094 354.949219 267.3125 354.253906 270.84375 C 352.746094 278.542969 350.296875 286.082031 347.289062 293.320312 C 344.171875 300.832031 340.175781 308.046875 335.753906 314.859375 C 331.332031 321.675781 326.386719 328.140625 320.660156 333.929688 C 317.691406 336.929688 314.550781 339.789062 311.082031 342.199219 C 309.601562 343.230469 308.078125 344.199219 306.515625 345.089844 C 305.761719 345.519531 304.996094 345.925781 304.21875 346.304688 C 303.484375 346.6875 302.703125 346.914062 301.878906 346.984375 L 301.820312 347.003906 C 301.558594 347.078125 301.285156 347.136719 301.023438 347.203125 C 298.148438 347.863281 296.65625 344.351562 298.921875 342.589844 Z M 298.921875 342.589844 " fill-opacity="1" fill-rule="nonzero"/><path fill="#444444" d="M 318.078125 340.710938 C 318.570312 340.070312 319.113281 339.476562 319.703125 338.925781 C 320.140625 338.539062 320.609375 338.199219 321.117188 337.910156 L 321.472656 337.699219 L 321.660156 337.574219 C 322.984375 336.710938 324.304688 335.835938 325.550781 334.867188 C 326.90625 333.808594 328.203125 332.683594 329.441406 331.488281 C 330.089844 330.867188 330.722656 330.226562 331.347656 329.582031 L 331.4375 329.488281 C 331.582031 329.335938 331.726562 329.179688 331.867188 329.023438 C 332.246094 328.609375 332.617188 328.195312 332.984375 327.773438 C 335.5 324.902344 337.929688 321.976562 340.125 318.835938 C 342.320312 315.695312 344.214844 312.480469 346.199219 309.269531 C 348.003906 306.34375 349.957031 303.179688 351.40625 300.3125 C 351.800781 299.546875 352.539062 299.035156 353.429688 299.269531 C 354.195312 299.46875 354.921875 300.273438 354.742188 301.128906 C 354.085938 304.371094 353.113281 307.511719 351.824219 310.558594 C 350.234375 314.21875 348.25 317.6875 346.144531 321.066406 C 341.894531 327.863281 337.023438 334.375 330.851562 339.539062 C 327.871094 342.035156 323.847656 345.285156 319.691406 344.339844 C 318.121094 344 316.894531 342.199219 318.078125 340.710938 Z M 318.078125 340.710938 " fill-opacity="1" fill-rule="nonzero"/><path fill="#444444" d="M 328.542969 346.480469 C 328.667969 346.1875 328.824219 345.914062 329.015625 345.65625 C 329.171875 345.488281 329.335938 345.332031 329.507812 345.179688 C 329.589844 345.101562 329.671875 345.027344 329.753906 344.957031 C 330.066406 344.691406 330.40625 344.460938 330.722656 344.199219 C 331.460938 343.589844 332.3125 343.113281 333.105469 342.570312 C 335.117188 341.179688 337.148438 339.859375 339.097656 338.382812 C 341.222656 336.777344 343.378906 335.207031 345.453125 333.546875 C 347.425781 331.972656 349.273438 330.4375 350.957031 328.902344 C 351.859375 328.105469 352.714844 327.253906 353.515625 326.355469 C 353.859375 325.957031 354.195312 325.5625 354.511719 325.140625 L 354.765625 324.800781 C 354.882812 324.628906 355 324.457031 355.109375 324.28125 C 356.25 322.457031 359.082031 323.921875 358.085938 325.867188 C 357.152344 327.65625 355.855469 329.277344 354.628906 330.878906 C 353.0625 332.910156 351.382812 334.847656 349.589844 336.683594 C 345.839844 340.558594 341.816406 344.160156 337.367188 347.222656 C 335.371094 348.601562 332.226562 350.589844 329.730469 349.554688 C 328.570312 349.078125 328.035156 347.609375 328.542969 346.480469 Z M 328.542969 346.480469 " fill-opacity="1" fill-rule="nonzero"/></svg>